{"title":"Scott and Bailey S01","uid":9759839,"size":1947889384,"categoryP":"video","categoryS":"tv_shows","magnet":"?xt=urn:btih:530186d0cf1c71c6435e4286471f39e1a79bee50&amp;dn=Scott+and+Bailey+S01&amp;tr=udp%3A%2F%2Ftracker.openbittorrent.com%3A80&amp;tr=udp%3A%2F%2Fopen.demonii.com%3A1337&amp;tr=udp%3A%2F%2Ftracker.coppersurfer.tk%3A6969&amp;tr=udp%3A%2F%2Fexodus.desync.com%3A6969","seeders":17,"leechers":2,"uploader":"RedBaron58","files":6,"time":1394797173,"description":"Scott and Bailey Season 01 (2011) 6 part 45 min episodes DVDrip x264 format mp4\n &lt;a href=&quot;\nhttp://www.imdb.com/title/tt1843678/&quot; rel=&quot;nofollow&quot; target=&quot;_NEW&quot;&gt;\nhttp://www.imdb.com/title/tt1843678/&lt;/a&gt;\n\n\nPlease be patient My upload speed is limited, but I am online most the time and during the night.\nThank you for your kind comments and thumbs ups on my other torrents, your feedback is welcome.\n\n\nAbout the Series:\n\nScott &amp; Bailey is a British television programme detailing the personal and professional lives of \nDC Janet Scott (Lesley Sharp) and DC Rachel Bailey (Suranne Jones), both of whom work for the fictional \nManchester Metropolitan Police's Major Incident Team, under the helm of DCI Gill Murray (Amelia Bullmore).\n\n\nI hope you enjoy.\n\n\nTechnical: (All episodes encoded to same settings)\n\nGeneral\nComplete name                            : F:Scott and Bailey S01Scott And Bailey S01E01 x264 RB58.mp4\nFormat                                   : MPEG-4\nFormat profile                           : Base Media / Version 2\nCodec ID                                 : mp42\nFile size                                : 308 MiB\nDuration                                 : 44mn 52s\nOverall bit rate mode                    : Variable\nOverall bit rate                         : 959 Kbps\nEncoded date                             : UTC 2014-03-12 20:57:40\nTagged date                              : UTC 2014-03-12 21:08:03\nWriting application                      : HandBrake 0.9.8 2012071700\n\nVideo\nID                                       : 1\nFormat                                   : AVC\nFormat/Info                              : Advanced Video Codec\nFormat profile                           : &lt;a class=&quot;__cf_email__&quot; href=&quot;/cdn-cgi/l/email-protection&quot; data-cfemail=&quot;fbb69a9295bbb7c8d5cb&quot;&gt;[email&amp;#160;protected]&lt;/a&gt;&lt;script cf-hash='f9e31' type=&quot;text/javascript&quot;&gt;\n/* &lt;![CDATA[ */!function(){try{var t=&quot;currentScript&quot;in document?document.currentScript:function(){for(var t=document.getElementsByTagName(&quot;script&quot;),e=t.length;e--;)if(t[e].getAttribute(&quot;cf-hash&quot;))return t[e]}();if(t&amp;&amp;t.previousSibling){var e,r,n,i,c=t.previousSibling,a=c.getAttribute(&quot;data-cfemail&quot;);if(a){for(e=&quot;&quot;,r=parseInt(a.substr(0,2),16),n=2;a.length-n;n+=2)i=parseInt(a.substr(n,2),16)^r,e+=String.fromCharCode(i);e=document.createTextNode(e),c.parentNode.replaceChild(e,c)}}}catch(u){}}();/* ]]&gt; */&lt;/script&gt;\nFormat settings, CABAC                   : Yes\nFormat settings, ReFrames                : 4 frames\nCodec ID                                 : avc1\nCodec ID/Info                            : Advanced Video Coding\nDuration                                 : 44mn 52s\nBit rate mode                            : Variable\nBit rate                                 : 800 Kbps\nWidth                                    : 720 pixels\nHeight                                   : 576 pixels\nDisplay aspect ratio                     : 16:9\nFrame rate mode                          : Constant\nFrame rate                               : 25.000 fps\nStandard                                 : PAL\nColor space                              : YUV\nChroma subsampling                       : 4:2:0\nBit depth                                : 8 bits\nScan type                                : Progressive\nBits/(Pixel*Frame)                       : 0.077\nStream size                              : 257 MiB (83%)\nWriting library                          : x264 core 120\nEncoding settings                        : cabac=1 / ref=1 / deblock=1:0:0\nEncoded date                             : UTC 2014-03-12 20:57:41\nTagged date                              : UTC 2014-03-12 21:08:03\nColor primaries                          : BT.601 NTSC\nTransfer characteristics                 : BT.709\nMatrix coefficients                      : BT.601\n\nAudio\nID                                       : 2\nFormat                                   : MPEG Audio\nFormat version                           : Version 1\nFormat profile                           : Layer 3\nCodec ID                                 : 69\nDuration                                 : 44mn 52s\nBit rate mode                            : Variable\nBit rate                                 : 155 Kbps\nMaximum bit rate                         : 175 Kbps\nChannel(s)                               : 2 channels\nSampling rate                            : 48.0 KHz\nCompression mode                         : Lossy\nDelay relative to video                  : 80ms\nStream size                              : 49.8 MiB (16%)\nLanguage                                 : English\nEncoded date                             : UTC 2014-03-12 20:57:41\nTagged date                              : UTC 2014-03-12 21:08:02","torrent":{"xt":"urn:btih:530186d0cf1c71c6435e4286471f39e1a79bee50","amp;dn":"Scott+and+Bailey+S01","amp;tr":["udp%3A%2F%2Ftracker.openbittorrent.com%3A80","udp%3A%2F%2Fopen.demonii.com%3A1337","udp%3A%2F%2Ftracker.coppersurfer.tk%3A6969","udp%3A%2F%2Fexodus.desync.com%3A6969"],"infoHash":"530186d0cf1c71c6435e4286471f39e1a79bee50","infoHashBuffer":{"type":"Buffer","data":[83,1,134,208,207,28,113,198,67,94,66,134,71,31,57,225,167,155,238,80]},"announce":[],"urlList":[]}}